<?xml version="1.0" encoding="UTF-8" standalone="no"?>
<!-- Created with Inkscape (http://www.inkscape.org/) -->

<svg
   width="152.73801"
   height="42.077"
   viewBox="0 0 40.411932 11.132873"
   version="1.1"
   id="svg5"
   inkscape:version="1.2.1 (9c6d41e410, 2022-07-14)"
   sodipodi:docname="bigint-logo.svg"
   xmlns:inkscape="http://www.inkscape.org/namespaces/inkscape"
   xmlns:sodipodi="http://sodipodi.sourceforge.net/DTD/sodipodi-0.dtd"
   xmlns="http://www.w3.org/2000/svg"
   xmlns:svg="http://www.w3.org/2000/svg"
   xmlns:rdf="http://www.w3.org/1999/02/22-rdf-syntax-ns#"
   xmlns:cc="http://creativecommons.org/ns#"
   xmlns:dc="http://purl.org/dc/elements/1.1/">
  <title
     id="title2386">Bigint logo</title>
  <sodipodi:namedview
     id="namedview7"
     pagecolor="#000000"
     bordercolor="#000000"
     borderopacity="0"
     inkscape:showpageshadow="false"
     inkscape:pageopacity="0"
     inkscape:pagecheckerboard="true"
     inkscape:deskcolor="#e5e0e0"
     inkscape:document-units="mm"
     showgrid="false"
     inkscape:zoom="5.3308642"
     inkscape:cx="88.728579"
     inkscape:cy="31.045623"
     inkscape:window-width="1920"
     inkscape:window-height="1014"
     inkscape:window-x="0"
     inkscape:window-y="0"
     inkscape:window-maximized="1"
     inkscape:current-layer="g2336"
     showborder="true"
     borderlayer="true"
     shape-rendering="auto"
     showguides="true">
    <sodipodi:guide
       position="1.1890881,3.3405934"
       orientation="1,0"
       id="guide2559"
       inkscape:locked="false" />
    <sodipodi:guide
       position="21.258702,0.5241455"
       orientation="0,-1"
       id="guide2561"
       inkscape:locked="false" />
  </sodipodi:namedview>
  <defs
     id="defs2" />
  <g
     inkscape:label="Слой 1"
     inkscape:groupmode="layer"
     id="layer1">
    <g
       id="g2336"
       transform="translate(92.739334,-21.456724)">
      <text
         xml:space="preserve"
         style="font-size:8.81944px;display:none;fill:#800000;stroke:none;stroke-width:0;stroke-linecap:square;stroke-linejoin:bevel;stroke-miterlimit:6.6;stroke-dasharray:none;stroke-dashoffset:7.79533"
         x="-92.308167"
         y="29.27309"
         id="text236"><tspan
           sodipodi:role="line"
           id="tspan234"
           style="font-style:normal;font-variant:normal;font-weight:normal;font-stretch:normal;font-family:'Cascadia Code PL';-inkscape-font-specification:'Cascadia Code PL';fill:#008000;fill-opacity:1;stroke:none;stroke-width:0;stroke-dasharray:none"
           x="-92.308167"
           y="29.27309"><tspan
             style="font-style:normal;font-variant:normal;font-weight:300;font-stretch:normal;font-family:'Cascadia Code PL';-inkscape-font-specification:'Cascadia Code PL Light';stroke:none;stroke-width:0;stroke-dasharray:none"
             id="tspan1362">Bigint</tspan><tspan
             style="fill:#666666;stroke:none;stroke-width:0;stroke-dasharray:none"
             id="tspan1154">::</tspan></tspan></text>
      <text
         xml:space="preserve"
         style="font-style:normal;font-variant:normal;font-weight:300;font-stretch:normal;font-size:2.11667px;line-height:0;font-family:'Cascadia Code PL';-inkscape-font-specification:'Cascadia Code PL Light';display:none;fill:#666666;fill-opacity:1;stroke:none;stroke-width:1;stroke-linecap:square;stroke-linejoin:bevel;stroke-miterlimit:6.6;stroke-dashoffset:7.79533"
         x="-62.277046"
         y="32.044781"
         id="text1366"><tspan
           sodipodi:role="line"
           id="tspan1364"
           style="font-size:2.11667px;line-height:0px;text-align:center;baseline-shift:baseline;text-anchor:middle;fill:#008080;stroke-width:1"
           x="-62.277046"
           y="32.044781">C++11 and newer</tspan></text>
      <text
         xml:space="preserve"
         style="font-style:normal;font-variant:normal;font-weight:300;font-stretch:normal;font-size:2.11667px;line-height:0px;font-family:'Cascadia Code PL';-inkscape-font-specification:'Cascadia Code PL Light';text-align:center;text-anchor:middle;display:none;fill:#ff2a2a;fill-opacity:1;stroke:none;stroke-width:0;stroke-linecap:square;stroke-linejoin:bevel;stroke-miterlimit:6.6;stroke-dasharray:none;stroke-dashoffset:7.79533"
         x="-91.627762"
         y="32.044781"
         id="text2455"><tspan
           sodipodi:role="line"
           id="tspan2453"
           style="text-align:start;text-anchor:start;fill:#ff2a2a;stroke-width:0"
           x="-91.627762"
           y="32.044781">GMP MP</tspan></text>
      <g
         aria-label="Bigint::"
         id="text387"
         style="font-size:8.81944px;fill:#008000;stroke-width:0;stroke-linecap:square;stroke-linejoin:bevel;stroke-miterlimit:6.6;stroke-dashoffset:7.79533">
        <path
           d="m -91.550246,29.27309 v -6.115041 h 1.748385 q 0.895725,0 1.38665,0.400492 0.490926,0.396186 0.490926,1.119656 0,0.594278 -0.357428,0.938788 -0.353122,0.340203 -1.00769,0.387573 v 0.04306 q 0.856967,0.01292 1.326361,0.426331 0.469394,0.413411 0.469394,1.1498 0,0.788065 -0.495232,1.218702 -0.495232,0.430636 -1.403876,0.430636 z m 0.568441,-0.529683 h 1.511534 q 0.667487,0 1.033529,-0.301445 0.366041,-0.305753 0.366041,-0.861274 0,-0.602891 -0.366041,-0.934482 -0.366042,-0.335896 -1.033529,-0.335896 h -1.511534 z m 0,-2.967087 h 1.19717 q 0.611504,0 0.9474,-0.279914 0.335897,-0.279913 0.335897,-0.788065 0,-0.486619 -0.335897,-0.753614 -0.335896,-0.266995 -0.951707,-0.266995 h -1.192863 z"
           style="font-weight:300;font-family:'Cascadia Code PL';-inkscape-font-specification:'Cascadia Code PL Light';fill:#008000"
           id="path448" />
        <path
           d="m -86.382605,29.27309 v -0.525376 h 1.838819 v -3.513996 h -1.580437 v -0.525377 h 2.15749 v 4.039373 h 1.502922 v 0.525376 z m 2.084281,-5.55952 q -0.206705,0 -0.353122,-0.146416 -0.146416,-0.146417 -0.146416,-0.353122 0,-0.206706 0.146416,-0.353122 0.146417,-0.146417 0.353122,-0.146417 0.206706,0 0.353123,0.146417 0.146416,0.146416 0.146416,0.353122 0,0.206705 -0.146416,0.353122 -0.146417,0.146416 -0.353123,0.146416 z"
           style="font-weight:300;font-family:'Cascadia Code PL';-inkscape-font-specification:'Cascadia Code PL Light';fill:#008000"
           id="path450" />
        <path
           d="m -81.120224,31.331534 -0.02584,-0.529683 1.378038,-0.05168 q 0.831129,-0.03014 1.210089,-0.465087 0.383267,-0.430637 0.387573,-1.278991 V 28.27832 h -0.05598 q -0.08613,0.503845 -0.443556,0.792371 -0.357428,0.288527 -0.999077,0.288527 -0.895724,0 -1.360812,-0.589973 -0.460781,-0.589972 -0.460781,-1.735466 0,-1.188557 0.465088,-1.800061 0.465087,-0.611504 1.373731,-0.611504 0.611504,0 0.981851,0.266995 0.370348,0.266994 0.460782,0.779452 h 0.04306 l 0.05168,-0.96032 h 0.516764 v 4.159951 q 0,1.218702 -0.538296,1.795755 -0.538296,0.58136 -1.718241,0.624423 z m 2.949861,-4.405414 q 0,-1.782836 -1.378037,-1.782836 -1.365119,0 -1.365119,1.890495 0,0.887112 0.34451,1.347893 0.348815,0.456475 1.024915,0.456475 1.373731,0 1.373731,-1.778529 z"
           style="font-weight:300;font-family:'Cascadia Code PL';-inkscape-font-specification:'Cascadia Code PL Light';fill:#008000"
           id="path452" />
        <path
           d="m -76.047324,29.27309 v -0.525376 h 1.838819 v -3.513996 h -1.580437 v -0.525377 h 2.15749 v 4.039373 h 1.502922 v 0.525376 z m 2.084282,-5.55952 q -0.206706,0 -0.353122,-0.146416 -0.146417,-0.146417 -0.146417,-0.353122 0,-0.206706 0.146417,-0.353122 0.146416,-0.146417 0.353122,-0.146417 0.206705,0 0.353122,0.146417 0.146416,0.146416 0.146416,0.353122 0,0.206705 -0.146416,0.353122 -0.146417,0.146416 -0.353122,0.146416 z"
           style="font-weight:300;font-family:'Cascadia Code PL';-inkscape-font-specification:'Cascadia Code PL Light';fill:#008000"
           id="path454" />
        <path
           d="m -67.835082,29.27309 v -2.984312 q 0,-0.542602 -0.288526,-0.835435 -0.288527,-0.292833 -0.800984,-0.292833 -1.347893,0 -1.347893,1.533066 v 2.579514 h -0.572747 v -4.564749 h 0.52107 l 0.04306,0.826823 h 0.06029 q 0.193787,-0.91295 1.343587,-0.91295 0.770839,0 1.192863,0.439249 0.422024,0.43925 0.422024,1.240234 v 2.971393 z"
           style="font-weight:300;font-family:'Cascadia Code PL';-inkscape-font-specification:'Cascadia Code PL Light';fill:#008000"
           id="path456" />
        <path
           d="m -63.05932,29.359218 q -0.882806,0 -1.30483,-0.452169 -0.422024,-0.452168 -0.422024,-1.38665 v -2.286681 h -1.313442 v -0.525377 h 1.313442 v -1.378037 h 0.577054 v 1.378037 h 2.105813 v 0.525377 h -2.105813 v 2.273762 q 0,0.667487 0.301445,0.990464 0.301446,0.322978 0.934482,0.322978 0.249769,0 0.482313,-0.02153 0.23685,-0.02584 0.495232,-0.0646 l 0.0646,0.521071 q -0.288527,0.05168 -0.555521,0.07751 -0.266995,0.02584 -0.572747,0.02584 z"
           style="font-weight:300;font-family:'Cascadia Code PL';-inkscape-font-specification:'Cascadia Code PL Light';fill:#008000"
           id="path458" />
        <path
           d="m -58.115611,29.359218 q -0.262688,0 -0.452168,-0.185174 -0.185174,-0.18948 -0.185174,-0.452169 0,-0.266994 0.185174,-0.452168 0.18948,-0.185174 0.452168,-0.185174 0.266995,0 0.452169,0.185174 0.185174,0.185174 0.185174,0.452168 0,0.262689 -0.185174,0.452169 -0.185174,0.185174 -0.452169,0.185174 z m 0,-3.462319 q -0.262688,0 -0.452168,-0.185174 -0.185174,-0.18948 -0.185174,-0.452169 0,-0.266995 0.185174,-0.452168 0.18948,-0.185174 0.452168,-0.185174 0.266995,0 0.452169,0.185174 0.185174,0.185173 0.185174,0.452168 0,0.262689 -0.185174,0.452169 -0.185174,0.185174 -0.452169,0.185174 z m 3.961858,3.462319 q -0.262688,0 -0.452168,-0.185174 -0.185174,-0.18948 -0.185174,-0.452169 0,-0.266994 0.185174,-0.452168 0.18948,-0.185174 0.452168,-0.185174 0.266995,0 0.452169,0.185174 0.185173,0.185174 0.185173,0.452168 0,0.262689 -0.185173,0.452169 -0.185174,0.185174 -0.452169,0.185174 z m 0,-3.462319 q -0.262688,0 -0.452168,-0.185174 -0.185174,-0.18948 -0.185174,-0.452169 0,-0.266995 0.185174,-0.452168 0.18948,-0.185174 0.452168,-0.185174 0.266995,0 0.452169,0.185174 0.185173,0.185173 0.185173,0.452168 0,0.262689 -0.185173,0.452169 -0.185174,0.185174 -0.452169,0.185174 z"
           style="fill:#b3b3b3"
           id="path460" />
      </g>
      <g
         aria-label="C++11 and newer"
         id="text391"
         style="font-weight:300;font-size:2.11667px;line-height:0;font-family:'Cascadia Code PL';-inkscape-font-specification:'Cascadia Code PL Light';fill:#666666;stroke-linecap:square;stroke-linejoin:bevel;stroke-miterlimit:6.6;stroke-dashoffset:7.79533">
        <path
           d="m -70.812972,32.065451 q -0.667661,0 -0.667661,-0.756544 0,-0.358635 0.167432,-0.555006 0.168465,-0.197404 0.475424,-0.197404 0.146761,0 0.254248,0.04858 0.108521,0.04754 0.158131,0.136426 l -0.09508,0.09715 q -0.05374,-0.07441 -0.136426,-0.115755 -0.08268,-0.04134 -0.178801,-0.04134 -0.229444,0 -0.366903,0.161231 -0.13746,0.160197 -0.13746,0.455787 0,0.641822 0.548805,0.641822 0.164331,0 0.329696,-0.07338 l 0.03307,0.121956 q -0.183968,0.07648 -0.384473,0.07648 z"
           style="line-height:0px;text-align:center;baseline-shift:baseline;text-anchor:middle;fill:#008080"
           id="path463" />
        <path
           d="m -69.643016,31.84841 v -0.47439 h -0.430982 v -0.126091 h 0.430982 v -0.472323 h 0.138493 v 0.472323 h 0.430982 v 0.126091 h -0.430982 v 0.47439 z m 0.950848,0 v -0.47439 h -0.430982 v -0.126091 h 0.430982 v -0.472323 h 0.138493 v 0.472323 h 0.430982 v 0.126091 h -0.430982 v 0.47439 z"
           style="line-height:0px;text-align:center;baseline-shift:baseline;text-anchor:middle;fill:#008080"
           id="path465" />
        <path
           d="m -67.665873,32.044781 v -0.127124 h 0.390675 v -1.20303 l -0.370004,0.11989 v -0.133326 l 0.370004,-0.124023 h 0.136426 v 1.340489 h 0.3514 v 0.127124 z"
           style="line-height:0px;text-align:center;baseline-shift:baseline;text-anchor:middle;fill:#008080"
           id="path467" />
        <path
           d="m -66.425636,32.044781 v -0.127124 h 0.390674 v -1.20303 l -0.370004,0.11989 v -0.133326 l 0.370004,-0.124023 h 0.136426 v 1.340489 h 0.3514 v 0.127124 z"
           style="line-height:0px;text-align:center;baseline-shift:baseline;text-anchor:middle;fill:#008080"
           id="path469" />
        <path
           d="m -63.250632,32.055116 -0.01033,-0.241846 h -0.01654 q -0.0186,0.114722 -0.128158,0.183968 -0.109554,0.06821 -0.269751,0.06821 -0.165365,0 -0.256316,-0.07648 -0.08992,-0.07751 -0.08992,-0.218075 0,-0.348299 0.480591,-0.348299 0.07338,0 0.139527,0.0052 0.06718,0.0041 0.120923,0.01344 v -0.04651 q 0,-0.167432 -0.08992,-0.242879 -0.08992,-0.07648 -0.284221,-0.08062 l -0.232544,-0.0041 0.02067,-0.128158 0.204639,0.0031 q 0.268718,0.0041 0.392742,0.118856 0.124024,0.113688 0.124024,0.354501 v 0.510564 l 0.188102,0.01654 v 0.10232 z m -0.02997,-0.500229 q -0.06098,-0.01034 -0.131258,-0.01137 -0.06925,-0.0021 -0.133326,-0.0021 -0.341065,0 -0.341065,0.221175 0,0.08682 0.05788,0.134359 0.05788,0.04651 0.164331,0.04651 0.114722,0 0.200505,-0.03824 0.08682,-0.03927 0.134359,-0.104386 0.04858,-0.06511 0.04858,-0.142628 z"
           style="line-height:0px;text-align:center;baseline-shift:baseline;text-anchor:middle;fill:#008080"
           id="path471" />
        <path
           d="m -61.984557,32.044781 v -0.716237 q 0,-0.130225 -0.06925,-0.200505 -0.06925,-0.07028 -0.192236,-0.07028 -0.323495,0 -0.323495,0.367937 v 0.619085 h -0.13746 v -1.095542 h 0.125057 l 0.01034,0.198437 h 0.01447 q 0.04651,-0.219108 0.322462,-0.219108 0.185002,0 0.286288,0.10542 0.101285,0.10542 0.101285,0.297657 v 0.713136 z"
           style="line-height:0px;text-align:center;baseline-shift:baseline;text-anchor:middle;fill:#008080"
           id="path473" />
        <path
           d="m -61.103989,32.065451 q -0.214975,0 -0.326596,-0.141593 -0.110588,-0.141594 -0.110588,-0.416513 0,-0.285254 0.111622,-0.432016 0.111621,-0.146761 0.329696,-0.146761 0.144694,0 0.232544,0.06408 0.08888,0.06408 0.110588,0.187069 h 0.0124 v -0.685231 h 0.13746 v 1.553396 l -0.115756,0.0072 -0.02067,-0.249081 h -0.01137 q -0.02067,0.120923 -0.107487,0.19017 -0.08682,0.06925 -0.241846,0.06925 z m 0.359668,-0.551905 v -0.03204 q 0,-0.427882 -0.330729,-0.427882 -0.32763,0 -0.32763,0.45372 0,0.212907 0.08268,0.323495 0.08372,0.109554 0.24598,0.109554 0.329696,0 0.329696,-0.426848 z"
           style="line-height:0px;text-align:center;baseline-shift:baseline;text-anchor:middle;fill:#008080"
           id="path475" />
        <path
           d="m -58.263848,32.044781 v -0.716237 q 0,-0.130225 -0.06925,-0.200505 -0.06925,-0.07028 -0.192236,-0.07028 -0.323495,0 -0.323495,0.367937 v 0.619085 h -0.13746 v -1.095542 h 0.125057 l 0.01034,0.198437 h 0.01447 q 0.04651,-0.219108 0.322461,-0.219108 0.185002,0 0.286288,0.10542 0.101286,0.10542 0.101286,0.297657 v 0.713136 z"
           style="line-height:0px;text-align:center;baseline-shift:baseline;text-anchor:middle;fill:#008080"
           id="path477" />
        <path
           d="m -57.219983,32.065451 q -0.271818,0 -0.420646,-0.150895 -0.148829,-0.150895 -0.148829,-0.427882 0,-0.265617 0.125057,-0.411345 0.126091,-0.146761 0.353468,-0.146761 0.212907,0 0.329696,0.132292 0.117822,0.132292 0.117822,0.376205 0,0.06408 -0.0062,0.107487 h -0.784449 q 0.01654,0.189136 0.135392,0.291456 0.118856,0.102319 0.323495,0.102319 0.128158,0 0.258383,-0.02894 l 0.01964,0.127124 q -0.07235,0.01447 -0.150896,0.0217 -0.07855,0.0072 -0.151929,0.0072 z m -0.434082,-0.638721 h 0.658358 q 0,-0.177768 -0.08268,-0.273886 -0.08165,-0.09715 -0.230477,-0.09715 -0.152963,0 -0.24288,0.09715 -0.08992,0.09715 -0.102319,0.273886 z"
           style="line-height:0px;text-align:center;baseline-shift:baseline;text-anchor:middle;fill:#008080"
           id="path479" />
        <path
           d="m -55.926003,32.044781 -0.153996,-0.965317 h -0.0124 l -0.149862,0.965317 h -0.203605 l -0.161231,-1.095542 h 0.127124 l 0.13746,0.984954 h 0.0155 l 0.157097,-0.984954 h 0.168466 l 0.156063,0.984954 h 0.0155 l 0.155029,-0.984954 h 0.130225 l -0.192237,1.095542 z"
           style="line-height:0px;text-align:center;baseline-shift:baseline;text-anchor:middle;fill:#008080"
           id="path481" />
        <path
           d="m -54.73951,32.065451 q -0.271819,0 -0.420647,-0.150895 -0.148828,-0.150895 -0.148828,-0.427882 0,-0.265617 0.125057,-0.411345 0.126091,-0.146761 0.353467,-0.146761 0.212907,0 0.329696,0.132292 0.117823,0.132292 0.117823,0.376205 0,0.06408 -0.0062,0.107487 h -0.78445 q 0.01654,0.189136 0.135393,0.291456 0.118856,0.102319 0.323495,0.102319 0.128157,0 0.258382,-0.02894 l 0.01964,0.127124 q -0.07235,0.01447 -0.150895,0.0217 -0.07855,0.0072 -0.151929,0.0072 z m -0.434083,-0.638721 h 0.658359 q 0,-0.177768 -0.08268,-0.273886 -0.08165,-0.09715 -0.230478,-0.09715 -0.152962,0 -0.242879,0.09715 -0.08992,0.09715 -0.10232,0.273886 z"
           style="line-height:0px;text-align:center;baseline-shift:baseline;text-anchor:middle;fill:#008080"
           id="path483" />
        <path
           d="m -53.710114,31.573491 v 0.345199 h 0.309026 v 0.126091 h -0.715203 V 31.91869 h 0.267684 v -0.843361 h -0.226343 v -0.12609 h 0.336931 l 0.0248,0.28112 h 0.0155 q 0.03721,-0.301791 0.322462,-0.301791 0.1757,0 0.254248,0.09715 0.07958,0.09715 0.07958,0.314193 h -0.138493 q 0,-0.150895 -0.05064,-0.218075 -0.05064,-0.06821 -0.162264,-0.06821 -0.160197,0 -0.238746,0.135393 -0.07855,0.135392 -0.07855,0.384473 z"
           style="line-height:0px;text-align:center;baseline-shift:baseline;text-anchor:middle;fill:#008080"
           id="path485" />
      </g>
      <g
         aria-label="GMP MP"
         id="text395"
         style="font-weight:300;font-size:2.11667px;line-height:0px;font-family:'Cascadia Code PL';-inkscape-font-specification:'Cascadia Code PL Light';text-align:center;text-anchor:middle;fill:#ff2a2a;stroke-width:0;stroke-linecap:square;stroke-linejoin:bevel;stroke-miterlimit:6.6;stroke-dashoffset:7.79533">
        <path
           d="m -90.909458,32.065451 q -0.310059,0 -0.475424,-0.194303 -0.165365,-0.195338 -0.165365,-0.562241 0,-0.358635 0.165365,-0.555006 0.166398,-0.197404 0.467155,-0.197404 0.144695,0 0.256316,0.04444 0.111621,0.04341 0.169499,0.124024 l -0.09819,0.09715 q -0.05581,-0.06718 -0.138494,-0.103353 -0.08165,-0.03721 -0.176733,-0.03721 -0.239779,0 -0.372071,0.162265 -0.132292,0.16123 -0.132292,0.454753 0,0.310059 0.135392,0.476457 0.136426,0.165365 0.389641,0.165365 0.06821,0 0.125058,-0.01034 0.05788,-0.01034 0.102319,-0.02274 v -0.43615 h -0.347266 v -0.12609 h 0.479558 v 0.658359 q -0.04341,0.01344 -0.146761,0.03824 -0.103353,0.02377 -0.237712,0.02377 z"
           style="text-align:start;text-anchor:start"
           id="path488" />
        <path
           d="m -90.238697,32.044781 v -1.467613 h 0.218075 l 0.24908,0.672828 h 0.0083 l 0.24908,-0.672828 h 0.218075 v 1.467613 h -0.133325 v -1.319818 h -0.01654 l -0.248047,0.665593 h -0.146761 l -0.248047,-0.665593 h -0.01654 v 1.319818 z"
           style="text-align:start;text-anchor:start"
           id="path490" />
        <path
           d="m -88.965388,32.044781 v -1.467613 h 0.428915 q 0.256316,0 0.392742,0.125057 0.137459,0.124024 0.137459,0.357601 0,0.239779 -0.137459,0.367937 -0.136426,0.128158 -0.392742,0.128158 h -0.292489 v 0.48886 z m 0.136426,-0.615984 h 0.292489 q 0.188103,0 0.289389,-0.09509 0.102319,-0.09612 0.102319,-0.273886 0,-0.171566 -0.102319,-0.26355 -0.101286,-0.09198 -0.289389,-0.09198 h -0.292489 z"
           style="text-align:start;text-anchor:start"
           id="path492" />
        <path
           d="m -86.517988,32.044781 v -1.467613 h 0.218075 l 0.24908,0.672828 h 0.0083 l 0.24908,-0.672828 h 0.218075 v 1.467613 h -0.133325 v -1.319818 h -0.01654 l -0.248047,0.665593 h -0.146761 l -0.248047,-0.665593 h -0.01654 v 1.319818 z"
           style="text-align:start;text-anchor:start"
           id="path494" />
        <path
           d="m -85.244679,32.044781 v -1.467613 h 0.428915 q 0.256315,0 0.392741,0.125057 0.13746,0.124024 0.13746,0.357601 0,0.239779 -0.13746,0.367937 -0.136426,0.128158 -0.392741,0.128158 h -0.292489 v 0.48886 z m 0.136426,-0.615984 h 0.292489 q 0.188102,0 0.289388,-0.09509 0.10232,-0.09612 0.10232,-0.273886 0,-0.171566 -0.10232,-0.26355 -0.101286,-0.09198 -0.289388,-0.09198 h -0.292489 z"
           style="text-align:start;text-anchor:start"
           id="path496" />
      </g>
    </g>
  </g>
  <metadata
     id="metadata2372">
    <rdf:RDF>
      <cc:Work
         rdf:about="">
        <cc:license
           rdf:resource="http://creativecommons.org/licenses/by-sa/4.0/" />
        <dc:title>Bigint logo</dc:title>
        <dc:date>03.09.2022</dc:date>
        <dc:creator>
          <cc:Agent>
            <dc:title>badcast</dc:title>
          </cc:Agent>
        </dc:creator>
      </cc:Work>
      <cc:License
         rdf:about="http://creativecommons.org/licenses/by-sa/4.0/">
        <cc:permits
           rdf:resource="http://creativecommons.org/ns#Reproduction" />
        <cc:permits
           rdf:resource="http://creativecommons.org/ns#Distribution" />
        <cc:requires
           rdf:resource="http://creativecommons.org/ns#Notice" />
        <cc:requires
           rdf:resource="http://creativecommons.org/ns#Attribution" />
        <cc:permits
           rdf:resource="http://creativecommons.org/ns#DerivativeWorks" />
        <cc:requires
           rdf:resource="http://creativecommons.org/ns#ShareAlike" />
      </cc:License>
    </rdf:RDF>
  </metadata>
</svg>
